<svg width="48" height="48" viewBox="0 0 48 48" fill="none" xmlns="http://www.w3.org/2000/svg">
<g clip-path="url(#clip0_1_589)">
<rect width="48" height="48" rx="7.38462" fill="white"/>
<rect width="48" height="48" rx="7.38462" fill="url(#paint0_linear_1_589)"/>
<path fill-rule="evenodd" clip-rule="evenodd" d="M24 3.05825C12.4342 3.05825 3.05825 12.4342 3.05825 24C3.05825 35.5658 12.4342 44.9417 24 44.9417C35.5658 44.9417 44.9418 35.5658 44.9418 24C44.9418 12.4342 35.5658 3.05825 24 3.05825ZM2.94175 24C2.94175 12.3698 12.3699 2.94175 24 2.94175C35.6302 2.94175 45.0583 12.3698 45.0583 24C45.0583 35.6302 35.6302 45.0583 24 45.0583C12.3699 45.0583 2.94175 35.6302 2.94175 24Z" fill="#D0D5DD"/>
<path fill-rule="evenodd" clip-rule="evenodd" d="M24 18.1168C20.7507 18.1168 18.1165 20.751 18.1165 24.0003C18.1165 27.2497 20.7507 29.8838 24 29.8838C27.2494 29.8838 29.8835 27.2497 29.8835 24.0003C29.8835 20.751 27.2494 18.1168 24 18.1168ZM18 24.0003C18 20.6866 20.6863 18.0003 24 18.0003C27.3137 18.0003 30 20.6866 30 24.0003C30 27.314 27.3137 30.0003 24 30.0003C20.6863 30.0003 18 27.314 18 24.0003Z" fill="#D0D5DD"/>
<path fill-rule="evenodd" clip-rule="evenodd" d="M24 19.9801C21.7801 19.9801 19.9806 21.7797 19.9806 23.9995C19.9806 26.2194 21.7801 28.019 24 28.019C26.2199 28.019 28.0194 26.2194 28.0194 23.9995C28.0194 21.7797 26.2199 19.9801 24 19.9801ZM19.8641 23.9995C19.8641 21.7153 21.7158 19.8636 24 19.8636C26.2842 19.8636 28.1359 21.7153 28.1359 23.9995C28.1359 26.2837 26.2842 28.1355 24 28.1355C21.7158 28.1355 19.8641 26.2837 19.8641 23.9995Z" fill="#D0D5DD"/>
<path d="M23.9417 0H24.0582V48H23.9417V0Z" fill="#D0D5DD"/>
<path d="M48 23.9414L48 24.0579L-5.09259e-09 24.0579L0 23.9414L48 23.9414Z" fill="#D0D5DD"/>
<path d="M39.9029 0H40.0194V48H39.9029V0Z" fill="#D0D5DD"/>
<path d="M15.9612 0H16.0777V48H15.9612V0Z" fill="#D0D5DD"/>
<path d="M31.9223 0H32.0388V48H31.9223V0Z" fill="#D0D5DD"/>
<path d="M7.98056 0H8.09707V48H7.98056V0Z" fill="#D0D5DD"/>
<path d="M48 39.9023L48 40.0188L-5.09259e-09 40.0188L0 39.9023L48 39.9023Z" fill="#D0D5DD"/>
<path d="M48 15.9609L48 16.0774L-5.09259e-09 16.0774L0 15.9609L48 15.9609Z" fill="#D0D5DD"/>
<path d="M48 31.9219L48 32.0384L-5.09259e-09 32.0384L0 31.9219L48 31.9219Z" fill="#D0D5DD"/>
<path d="M48 7.98047L48 8.09697L-5.09259e-09 8.09697L0 7.98047L48 7.98047Z" fill="#D0D5DD"/>
<g filter="url(#filter0_dd_1_589)">
<circle cx="24" cy="24" r="12" fill="#1774FD"/>
</g>
<path d="M0 24H48C48 37.2548 37.2548 48 24 48C10.7452 48 0 37.2548 0 24Z" fill="white" fill-opacity="0.2"/>
</g>
<rect x="0.830769" y="0.830769" width="46.3385" height="46.3385" rx="6.55385" stroke="#D0D5DD" stroke-width="1.66154"/>
<defs>
<filter id="filter0_dd_1_589" x="-4.61539" y="0.923077" width="57.2308" height="57.2308" filterUnits="userSpaceOnUse" color-interpolation-filters="sRGB">
<feFlood flood-opacity="0" result="BackgroundImageFix"/>
<feColorMatrix in="SourceAlpha" type="matrix" values="0 0 0 0 0 0 0 0 0 0 0 0 0 0 0 0 0 0 127 0" result="hardAlpha"/>
<feOffset dy="5.53846"/>
<feGaussianBlur stdDeviation="5.53846"/>
<feColorMatrix type="matrix" values="0 0 0 0 0.0627451 0 0 0 0 0.0941176 0 0 0 0 0.156863 0 0 0 0.06 0"/>
<feBlend mode="normal" in2="BackgroundImageFix" result="effect1_dropShadow_1_589"/>
<feColorMatrix in="SourceAlpha" type="matrix" values="0 0 0 0 0 0 0 0 0 0 0 0 0 0 0 0 0 0 127 0" result="hardAlpha"/>
<feOffset dy="5.53846"/>
<feGaussianBlur stdDeviation="8.30769"/>
<feColorMatrix type="matrix" values="0 0 0 0 0.0627451 0 0 0 0 0.0941176 0 0 0 0 0.156863 0 0 0 0.1 0"/>
<feBlend mode="normal" in2="effect1_dropShadow_1_589" result="effect2_dropShadow_1_589"/>
<feBlend mode="normal" in="SourceGraphic" in2="effect2_dropShadow_1_589" result="shape"/>
</filter>
<linearGradient id="paint0_linear_1_589" x1="24" y1="0" x2="24" y2="48" gradientUnits="userSpaceOnUse">
<stop stop-color="white"/>
<stop offset="1" stop-color="#D0D5DD"/>
</linearGradient>
<clipPath id="clip0_1_589">
<rect width="48" height="48" rx="7.38462" fill="white"/>
</clipPath>
</defs>
</svg>
