<svg width="45" height="44" viewBox="0 0 45 44" fill="none" xmlns="http://www.w3.org/2000/svg">
<path d="M22.7499 0C10.5996 0 0.749939 9.84974 0.749939 22C0.749939 34.1503 10.5996 44 22.7499 44C33.651 44 42.7001 36.0716 44.4458 25.6667H44.2879C42.6597 31.9925 36.9173 36.6667 30.0833 36.6667C21.9831 36.6667 15.4166 30.1002 15.4166 22C15.4166 13.8998 21.9831 7.33333 30.0833 7.33333C36.9173 7.33333 42.6597 12.0075 44.2879 18.3333H44.4458C42.7001 7.92838 33.651 0 22.7499 0Z" fill="#A4BCFD"/>
<path d="M0.749939 22C0.749939 9.84974 10.5997 0 22.7499 0C33.6509 0 42.7001 7.92838 44.4458 18.3333H29.6212C27.993 12.0075 22.2507 7.33333 15.4166 7.33333C7.31643 7.33333 0.749939 13.8998 0.749939 22Z" fill="#3538CD"/>
<path d="M0.749939 22C0.749939 34.1503 10.5997 44 22.7499 44C33.6509 44 42.7001 36.0716 44.4458 25.6667H29.6212C27.993 31.9925 22.2507 36.6667 15.4166 36.6667C7.31643 36.6667 0.749939 30.1002 0.749939 22Z" fill="#3538CD"/>
</svg>
