<svg width="45" height="44" viewBox="0 0 45 44" fill="none" xmlns="http://www.w3.org/2000/svg">
<path d="M16.2142 31.4286C24.893 31.4286 31.9285 24.393 31.9285 15.7143C31.9285 14.7307 31.8381 13.7682 31.6652 12.8347C30.7317 12.6618 29.7692 12.5714 28.7856 12.5714C20.1069 12.5714 13.0714 19.6069 13.0714 28.2857C13.0714 29.2693 13.1617 30.2318 13.3346 31.1653C14.2681 31.3382 15.2306 31.4286 16.2142 31.4286Z" fill="#175CD3"/>
<path fill-rule="evenodd" clip-rule="evenodd" d="M13.3346 31.1653C6.03112 29.8127 0.499939 23.4095 0.499939 15.7143C0.499939 7.03553 7.53547 0 16.2142 0C23.9094 0 30.3127 5.53118 31.6653 12.8347C30.7317 12.6618 29.7692 12.5714 28.7857 12.5714C20.1069 12.5714 13.0714 19.607 13.0714 28.2857C13.0714 29.2693 13.1617 30.2318 13.3346 31.1653Z" fill="#1570EF"/>
<path fill-rule="evenodd" clip-rule="evenodd" d="M16.2141 31.4285C24.8929 31.4285 31.9284 24.393 31.9284 15.7142C31.9284 14.7306 31.8381 13.7681 31.6652 12.8346C38.9687 14.1872 44.4999 20.5905 44.4999 28.2856C44.4999 36.9644 37.4643 43.9999 28.7856 43.9999C21.0904 43.9999 14.6871 38.4687 13.3345 31.1652C14.2681 31.3381 15.2305 31.4285 16.2141 31.4285Z" fill="#2E90FA"/>
</svg>
