<svg width="7" height="44" viewBox="0 0 7 44" fill="none" xmlns="http://www.w3.org/2000/svg">
<path d="M-23.7225 20.3182C-22.9002 17.25 -19.7463 14.0961 -16.678 13.2738L2.45093 8.14743C5.5192 7.32516 7.33995 9.14591 6.51769 12.2142L1.39132 31.3432C0.569056 34.4114 -2.58484 37.5653 -5.65311 38.3876L-24.7821 43.514C-27.8504 44.3362 -29.6711 42.5155 -28.8488 39.4472L-23.7225 20.3182Z" fill="#9E77ED"/>
<path d="M-31.3912 12.6493C-30.5689 9.58107 -27.415 6.42717 -24.3467 5.60491L-5.21773 0.47854C-2.14946 -0.343725 -0.328713 1.47702 -1.15098 4.54529L-6.27734 23.6743C-7.09961 26.7425 -10.2535 29.8964 -13.3218 30.7187L-32.4508 35.8451C-35.519 36.6673 -37.3398 34.8466 -36.5175 31.7783L-31.3912 12.6493Z" fill="#6941C6"/>
</svg>
